#Comment line ignore any data following # character 
#Hierarchical Translation and Rotation (.htr) file 
[Header]	
#Header keywords are followed by a single value 
FileType HTR		#Single word string
DataType HTRS		#Translation followed by rotation and scale data
FileVersion 1		#integer
NumSegments 84		#integer
NumFrames 2		#integer
DataFrameRate 30		#integer, data frame rate in this file
EulerRotationOrder ZYX
CalibrationUnits mm
RotationUnits Degrees
GlobalAxisofGravity Y
BoneLengthAxis Y
ScaleFactor 1.00
[SegmentNames&Hierarchy]
#CHILD	PARENT
MASTER GLOBAL
root MASTER
chest root
L_mid_tent01 root
R_mid_tent01 root
spine01 root
Bip01_Neck chest
L_humerus chest
R_humerus chest
weapon_bone chest
Bip01_Head Bip01_Neck
eye_left_bone Bip01_Head
eye_right_bone Bip01_Head
L_forearm L_humerus
L_front_hand L_forearm
L_weapon_bone L_forearm
L_front_hand01_01 L_front_hand
L_front_hand02_01 L_front_hand
L_front_hand03_01 L_front_hand
L_front_hand01_02 L_front_hand01_01
L_front_hand02_02 L_front_hand02_01
L_front_hand03_02 L_front_hand03_01
R_forearm R_humerus
R_front_hand R_forearm
R_weapon_bone R_forearm
R_front_hand01_01 R_front_hand
R_front_hand02_01 R_front_hand
R_front_hand03_01 R_front_hand
R_front_hand01_02 R_front_hand01_01
R_front_hand02_02 R_front_hand02_01
R_front_hand03_02 R_front_hand03_01
null_rope01_connect L_mid_tent01
Rope1_Seg01 null_rope01_connect
Rope1_Seg02 Rope1_Seg01
Rope1_Seg03 Rope1_Seg02
Rope1_Seg04 Rope1_Seg03
Rope1_Seg05 Rope1_Seg04
Rope1_Seg06 Rope1_Seg05
Rope1_Seg07 Rope1_Seg06
Rope1_Seg09 Rope1_Seg07
L_mid_hand01 Rope1_Seg09
L_mid_hand02 Rope1_Seg09
L_mid_hand03 Rope1_Seg09
null_rope02_connect R_mid_tent01
Rope2_Seg01 null_rope02_connect
Rope2_Seg02 Rope2_Seg01
Rope2_Seg03 Rope2_Seg02
Rope2_Seg04 Rope2_Seg03
Rope2_Seg05 Rope2_Seg04
Rope2_Seg06 Rope2_Seg05
Rope2_Seg07 Rope2_Seg06
Rope2_Seg09 Rope2_Seg07
R_mid_hand01 Rope2_Seg09
R_mid_hand02 Rope2_Seg09
R_mid_hand03 Rope2_Seg09
spine02 spine01
spine03 spine02
pelvis spine03
null_rope03_connect pelvis
null_rope04_connect pelvis
Rope3_Seg01 null_rope03_connect
Rope3_Seg02 Rope3_Seg01
Rope3_Seg03 Rope3_Seg02
Rope3_Seg04 Rope3_Seg03
Rope3_Seg05 Rope3_Seg04
Rope3_Seg06 Rope3_Seg05
Rope3_Seg07 Rope3_Seg06
Rope3_Seg08 Rope3_Seg07
Rope3_Seg09 Rope3_Seg08
R_rear_hand01 Rope3_Seg09
R_rear_hand02 Rope3_Seg09
R_rear_hand03 Rope3_Seg09
Rope4_Seg01 null_rope04_connect
Rope4_Seg02 Rope4_Seg01
Rope4_Seg03 Rope4_Seg02
Rope4_Seg04 Rope4_Seg03
Rope4_Seg05 Rope4_Seg04
Rope4_Seg06 Rope4_Seg05
Rope4_Seg07 Rope4_Seg06
Rope4_Seg08 Rope4_Seg07
Rope4_Seg09 Rope4_Seg08
L_rear_hand01 Rope4_Seg09
L_rear_hand02 Rope4_Seg09
L_rear_hand03 Rope4_Seg09
[BasePosition]
#SegmentName Tx, Ty, Tz, Rx, Ry, Rz, BoneLength
MASTER 0.000000 0.000000 0.000000 -90.000000 0.000000 0.000000 10.000000 
root 0.000000 0.000000 0.000000 0.000000 0.000000 0.000000 10.000000 
chest 0.000000 0.000000 0.000000 0.000000 0.000000 0.000000 10.000000 
L_mid_tent01 0.000000 0.000000 0.000000 0.000000 0.000000 0.000000 10.000000 
R_mid_tent01 0.000000 0.000000 0.000000 0.000000 0.000000 0.000000 10.000000 
spine01 0.000000 0.000000 0.000000 0.000000 0.000000 0.000000 10.000000 
Bip01_Neck 0.000000 0.000000 0.000000 0.000000 0.000000 0.000000 10.000000 
L_humerus 0.000000 0.000000 0.000000 0.000000 0.000000 0.000000 10.000000 
R_humerus 0.000000 0.000000 0.000000 0.000000 0.000000 0.000000 10.000000 
weapon_bone 0.000000 0.000000 0.000000 0.000000 0.000000 0.000000 10.000000 
Bip01_Head 0.000000 0.000000 0.000000 0.000000 0.000000 0.000000 10.000000 
eye_left_bone 0.000000 0.000000 0.000000 0.000000 0.000000 0.000000 10.000000 
eye_right_bone 0.000000 0.000000 0.000000 0.000000 0.000000 0.000000 10.000000 
L_forearm 0.000000 0.000000 0.000000 0.000000 0.000000 0.000000 10.000000 
L_front_hand 0.000000 0.000000 0.000000 0.000000 0.000000 0.000000 10.000000 
L_weapon_bone 0.000000 0.000000 0.000000 0.000000 0.000000 0.000000 10.000000 
L_front_hand01_01 0.000000 0.000000 0.000000 0.000000 0.000000 0.000000 10.000000 
L_front_hand02_01 0.000000 0.000000 0.000000 0.000000 0.000000 0.000000 10.000000 
L_front_hand03_01 0.000000 0.000000 0.000000 0.000000 0.000000 0.000000 10.000000 
L_front_hand01_02 0.000000 0.000000 0.000000 0.000000 0.000000 0.000000 10.000000 
L_front_hand02_02 0.000000 0.000000 0.000000 0.000000 0.000000 0.000000 10.000000 
L_front_hand03_02 0.000000 0.000000 0.000000 0.000000 0.000000 0.000000 10.000000 
R_forearm 0.000000 0.000000 0.000000 0.000000 0.000000 0.000000 10.000000 
R_front_hand 0.000000 0.000000 0.000000 0.000000 0.000000 0.000000 10.000000 
R_weapon_bone 0.000000 0.000000 0.000000 0.000000 0.000000 0.000000 10.000000 
R_front_hand01_01 0.000000 0.000000 0.000000 0.000000 0.000000 0.000000 10.000000 
R_front_hand02_01 0.000000 0.000000 0.000000 0.000000 0.000000 0.000000 10.000000 
R_front_hand03_01 0.000000 0.000000 0.000000 0.000000 0.000000 0.000000 10.000000 
R_front_hand01_02 0.000000 0.000000 0.000000 0.000000 0.000000 0.000000 10.000000 
R_front_hand02_02 0.000000 0.000000 0.000000 0.000000 0.000000 0.000000 10.000000 
R_front_hand03_02 0.000000 0.000000 0.000000 0.000000 0.000000 0.000000 10.000000 
null_rope01_connect 0.000000 0.000000 0.000000 0.000000 0.000000 0.000000 10.000000 
Rope1_Seg01 0.000000 0.000000 0.000000 0.000000 0.000000 0.000000 10.000000 
Rope1_Seg02 0.000000 0.000000 0.000000 0.000000 0.000000 0.000000 10.000000 
Rope1_Seg03 0.000000 0.000000 0.000000 0.000000 0.000000 0.000000 10.000000 
Rope1_Seg04 0.000000 0.000000 0.000000 0.000000 0.000000 0.000000 10.000000 
Rope1_Seg05 0.000000 0.000000 0.000000 0.000000 0.000000 0.000000 10.000000 
Rope1_Seg06 0.000000 0.000000 0.000000 0.000000 0.000000 0.000000 10.000000 
Rope1_Seg07 0.000000 0.000000 0.000000 0.000000 0.000000 0.000000 10.000000 
Rope1_Seg09 0.000000 0.000000 0.000000 0.000000 0.000000 0.000000 10.000000 
L_mid_hand01 0.000000 0.000000 0.000000 0.000000 0.000000 0.000000 10.000000 
L_mid_hand02 0.000000 0.000000 0.000000 0.000000 0.000000 0.000000 10.000000 
L_mid_hand03 0.000000 0.000000 0.000000 0.000000 0.000000 0.000000 10.000000 
null_rope02_connect 0.000000 0.000000 0.000000 0.000000 0.000000 0.000000 10.000000 
Rope2_Seg01 0.000000 0.000000 0.000000 0.000000 0.000000 0.000000 10.000000 
Rope2_Seg02 0.000000 0.000000 0.000000 0.000000 0.000000 0.000000 10.000000 
Rope2_Seg03 0.000000 0.000000 0.000000 0.000000 0.000000 0.000000 10.000000 
Rope2_Seg04 0.000000 0.000000 0.000000 0.000000 0.000000 0.000000 10.000000 
Rope2_Seg05 0.000000 0.000000 0.000000 0.000000 0.000000 0.000000 10.000000 
Rope2_Seg06 0.000000 0.000000 0.000000 0.000000 0.000000 0.000000 10.000000 
Rope2_Seg07 0.000000 0.000000 0.000000 0.000000 0.000000 0.000000 10.000000 
Rope2_Seg09 0.000000 0.000000 0.000000 0.000000 0.000000 0.000000 10.000000 
R_mid_hand01 0.000000 0.000000 0.000000 0.000000 0.000000 0.000000 10.000000 
R_mid_hand02 0.000000 0.000000 0.000000 0.000000 0.000000 0.000000 10.000000 
R_mid_hand03 0.000000 0.000000 0.000000 0.000000 0.000000 0.000000 10.000000 
spine02 0.000000 0.000000 0.000000 0.000000 0.000000 0.000000 10.000000 
spine03 0.000000 0.000000 0.000000 0.000000 0.000000 0.000000 10.000000 
pelvis 0.000000 0.000000 0.000000 0.000000 0.000000 0.000000 10.000000 
null_rope03_connect 0.000000 0.000000 0.000000 0.000000 0.000000 0.000000 10.000000 
null_rope04_connect 0.000000 0.000000 0.000000 0.000000 0.000000 0.000000 10.000000 
Rope3_Seg01 0.000000 0.000000 0.000000 0.000000 0.000000 0.000000 10.000000 
Rope3_Seg02 0.000000 0.000000 0.000000 0.000000 0.000000 0.000000 10.000000 
Rope3_Seg03 0.000000 0.000000 0.000000 0.000000 0.000000 0.000000 10.000000 
Rope3_Seg04 0.000000 0.000000 0.000000 0.000000 0.000000 0.000000 10.000000 
Rope3_Seg05 0.000000 0.000000 0.000000 0.000000 0.000000 0.000000 10.000000 
Rope3_Seg06 0.000000 0.000000 0.000000 0.000000 0.000000 0.000000 10.000000 
Rope3_Seg07 0.000000 0.000000 0.000000 0.000000 0.000000 0.000000 10.000000 
Rope3_Seg08 0.000000 0.000000 0.000000 0.000000 0.000000 0.000000 10.000000 
Rope3_Seg09 0.000000 0.000000 0.000000 0.000000 0.000000 0.000000 10.000000 
R_rear_hand01 0.000000 0.000000 0.000000 0.000000 0.000000 0.000000 10.000000 
R_rear_hand02 0.000000 0.000000 0.000000 0.000000 0.000000 0.000000 10.000000 
R_rear_hand03 0.000000 0.000000 0.000000 0.000000 0.000000 0.000000 10.000000 
Rope4_Seg01 0.000000 0.000000 0.000000 0.000000 0.000000 0.000000 10.000000 
Rope4_Seg02 0.000000 0.000000 0.000000 0.000000 0.000000 0.000000 10.000000 
Rope4_Seg03 0.000000 0.000000 0.000000 0.000000 0.000000 0.000000 10.000000 
Rope4_Seg04 0.000000 0.000000 0.000000 0.000000 0.000000 0.000000 10.000000 
Rope4_Seg05 0.000000 0.000000 0.000000 0.000000 0.000000 0.000000 10.000000 
Rope4_Seg06 0.000000 0.000000 0.000000 0.000000 0.000000 0.000000 10.000000 
Rope4_Seg07 0.000000 0.000000 0.000000 0.000000 0.000000 0.000000 10.000000 
Rope4_Seg08 0.000000 0.000000 0.000000 0.000000 0.000000 0.000000 10.000000 
Rope4_Seg09 0.000000 0.000000 0.000000 0.000000 0.000000 0.000000 10.000000 
L_rear_hand01 0.000000 0.000000 0.000000 0.000000 0.000000 0.000000 10.000000 
L_rear_hand02 0.000000 0.000000 0.000000 0.000000 0.000000 0.000000 10.000000 
L_rear_hand03 0.000000 0.000000 0.000000 0.000000 0.000000 0.000000 10.000000 
#Beginning of Data. Separated by tabs
#Fr	Tx	Ty	Tz	Rx	Ry	Rz	SF
[MASTER]
17 0.000000 0.000000 0.000000 0.001660 0.001660 0.001660 0.000000
18 0.000000 0.000000 0.000000 0.001660 0.001660 0.001660 0.000000
[root]
17 -34.625149 -49.898109 1500.759399 -85.162430 -21.440519 -89.985893 1501.987793
18 -36.267048 -51.011845 1502.137451 -87.232666 -25.208935 -86.792282 1503.440796
[chest]
17 -84.512650 -34.090519 0.000000 -2.400053 2.291367 -175.704483 91.129311
18 -84.512650 -34.090519 0.000000 -2.472991 2.426028 -176.005783 91.129311
[L_mid_tent01]
17 27.299170 22.179260 -249.918732 2.244325 22.532766 79.883698 252.381729
18 27.299175 22.179268 -249.918732 2.432143 24.055592 80.067696 252.381729
[R_mid_tent01]
17 23.228794 24.509907 226.238495 162.600830 -31.102365 82.222557 228.744751
18 23.228794 24.509907 226.238495 161.931396 -36.185287 83.618835 228.744751
[spine01]
17 -0.361383 -0.195265 0.000000 -0.000001 -0.000007 22.052340 0.410763
18 -0.361383 -0.195265 0.000000 -0.000001 -0.000007 22.052340 0.410763
[Bip01_Neck]
17 165.484543 71.581718 0.000119 176.643677 -1.657967 43.431911 180.302734
18 165.484543 71.581718 0.000119 176.643677 -1.657967 43.431911 180.302734
[L_humerus]
17 -13.983130 -135.272980 -120.471481 166.041153 14.539245 -141.361160 181.680161
18 -13.983130 -135.272980 -120.471481 164.388153 18.615637 -139.225082 181.680161
[R_humerus]
17 -13.983309 -135.273102 125.287651 -169.537109 -14.332819 -135.395386 184.909012
18 -13.983309 -135.273102 125.287651 -168.230591 -18.260994 -132.839050 184.909012
[weapon_bone]
17 235.964890 -300.705902 0.000000 0.000000 -89.951546 -128.212341 382.234833
18 235.964890 -300.705902 0.000000 0.000000 -89.951546 -128.212341 382.234833
[Bip01_Head]
17 213.630142 185.198135 18.453938 4.441000 -1.420067 -43.901424 283.331482
18 213.584045 185.326843 16.794924 4.438828 -1.308843 -43.901844 283.277710
[eye_left_bone]
17 -24.626970 125.451866 -64.772606 0.000000 -90.000000 -99.840431 143.318359
18 -24.626970 125.451866 -64.772606 0.000000 -90.000000 -99.840431 143.318359
[eye_right_bone]
17 -24.626970 125.451866 64.327362 0.000000 -89.965736 80.156380 143.117676
18 -24.626970 125.451866 64.327362 0.000000 -89.965736 80.156380 143.117676
[L_forearm]
17 322.776093 0.000000 -0.000119 0.000396 -0.002314 -109.419975 322.776093
18 322.776093 0.000000 -0.000119 0.000396 -0.002314 -109.419975 322.776093
[L_front_hand]
17 241.149185 -0.042021 -3.300071 -178.667953 -1.835447 -27.422350 241.171753
18 241.149185 -0.042021 -3.300071 -178.667953 -1.835447 -27.422350 241.171753
[L_weapon_bone]
17 156.183838 0.000000 0.000000 0.000014 0.000007 0.000001 156.183838
18 156.183838 0.000000 0.000000 0.000014 0.000007 0.000001 156.183838
[L_front_hand01_01]
17 86.095154 20.947098 -0.655860 -0.282467 -0.528169 66.067474 88.609184
18 86.095154 20.947098 -0.655860 -0.289102 -0.524108 66.611092 88.609184
[L_front_hand02_01]
17 86.935165 -11.437475 24.513514 141.960800 -54.937962 -46.642353 91.046425
18 86.935165 -11.437475 24.513514 142.580536 -55.269016 -47.395405 91.046425
[L_front_hand03_01]
17 86.637497 -14.123976 -20.424902 -142.303543 53.163292 -48.671017 90.126129
18 86.637497 -14.123976 -20.424902 -142.879883 53.494293 -49.392010 90.126129
[L_front_hand01_02]
17 71.020905 -0.000179 0.000030 0.000315 -0.002326 -105.421257 71.020905
18 71.020905 -0.000179 0.000030 0.000315 -0.002326 -105.441971 71.020905
[L_front_hand02_02]
17 71.020927 -0.000119 0.000060 0.000315 -0.002326 -105.421257 71.020927
18 71.020927 -0.000119 0.000060 0.000315 -0.002326 -105.441971 71.020927
[L_front_hand03_02]
17 71.020905 -0.000060 0.000060 0.000315 -0.002326 -105.421257 71.020905
18 71.020905 -0.000060 0.000060 0.000315 -0.002326 -105.441971 71.020905
[R_forearm]
17 322.776428 -0.000060 0.000030 0.202103 0.065158 -108.062805 322.776428
18 322.776428 -0.000060 0.000030 0.202103 0.065158 -108.062805 322.776428
[R_front_hand]
17 238.847015 -0.006795 2.210259 -2.635298 -10.645461 -26.312506 238.857239
18 238.847015 -0.006795 2.210259 -2.635298 -10.645461 -26.312506 238.857239
[R_weapon_bone]
17 155.664093 0.002503 -0.000030 0.003487 0.001180 -90.988930 155.664078
18 155.664093 0.002503 -0.000030 0.003487 0.001180 -90.988930 155.664078
[R_front_hand01_01]
17 87.624611 14.231146 22.918642 -139.271561 -53.333107 43.426727 91.683487
18 87.624611 14.231146 22.918642 -140.217056 -53.925087 44.603302 91.683487
[R_front_hand02_01]
17 89.356956 14.367283 -19.491137 140.080994 51.767315 46.104954 92.579636
18 89.356956 14.367283 -19.491137 140.984970 52.347912 47.247581 92.579636
[R_front_hand03_01]
17 87.286232 -22.307278 -0.143439 0.071479 -0.448702 -63.787720 90.091743
18 87.286232 -22.307278 -0.143439 0.075044 -0.448119 -64.698730 90.091743
[R_front_hand01_02]
17 71.020905 0.000060 0.000119 0.002323 -0.000334 106.381714 71.020905
18 71.020905 0.000060 0.000119 0.002323 -0.000334 106.381714 71.020905
[R_front_hand02_02]
17 71.020844 -0.000030 -0.000119 0.002323 -0.000334 106.381714 71.020836
18 71.020844 -0.000030 -0.000119 0.002323 -0.000334 106.381714 71.020836
[R_front_hand03_02]
17 71.020905 0.000000 0.000030 0.002323 -0.000334 106.381714 71.020905
18 71.020905 0.000000 0.000030 0.002323 -0.000334 106.381714 71.020905
[null_rope01_connect]
17 328.732483 0.000000 -0.000238 -138.611816 -71.976692 170.353775 328.732483
18 328.732483 0.000000 -0.000238 -143.612961 -70.532326 179.558685 328.732483
[Rope1_Seg01]
17 0.000000 0.000000 0.000000 121.819923 18.813946 -152.720825 0.000000
18 0.000000 0.000000 0.000000 107.063988 5.007165 -159.681107 0.000000
[Rope1_Seg02]
17 139.999863 -0.000179 0.000000 18.211170 -12.279695 -5.228127 139.999863
18 139.999863 -0.000179 0.000000 11.727158 -9.165039 -6.265089 139.999863
[Rope1_Seg03]
17 139.999924 0.000060 -0.000060 16.466810 -22.375116 -2.014032 139.999924
18 139.999924 0.000060 -0.000060 16.538811 -18.186636 -8.044114 139.999924
[Rope1_Seg04]
17 139.999924 -0.000060 -0.000119 5.550476 -22.502422 4.952331 139.999924
18 139.999924 -0.000060 -0.000119 13.029140 -25.067204 -6.174834 139.999924
[Rope1_Seg05]
17 139.999832 0.000119 -0.000060 -0.462734 -26.037716 8.201788 139.999832
18 139.999832 0.000119 -0.000060 2.273120 -23.146839 3.682474 139.999832
[Rope1_Seg06]
17 139.999954 0.000119 -0.000060 -9.591207 -30.836685 10.502761 139.999954
18 139.999954 0.000119 -0.000060 -8.026345 -32.124836 13.905807 139.999954
[Rope1_Seg07]
17 139.999985 0.000060 0.000000 -7.655147 -13.802279 2.657140 139.999985
18 139.999985 0.000060 0.000000 -10.118836 -19.560270 5.630073 139.999985
[Rope1_Seg09]
17 121.602913 0.000119 -0.000089 -89.793175 -1.359789 0.847147 121.602913
18 121.602913 0.000119 -0.000089 -89.793175 -1.359789 0.847147 121.602913
[L_mid_hand01]
17 103.859421 1.038730 8.195221 126.075432 -65.098572 -33.991940 104.187431
18 103.859421 1.038730 8.195221 129.242508 -66.931122 -37.458988 104.187431
[L_mid_hand02]
17 105.572853 -4.139662 -10.864139 -166.035263 42.723961 -69.273849 106.211075
18 105.572853 -4.139662 -10.864139 -168.136536 43.236568 -72.353119 106.211075
[L_mid_hand03]
17 104.641464 17.579376 -3.913581 -7.014416 17.452784 71.596512 106.179977
18 104.641464 17.579376 -3.913581 -6.285009 17.719219 74.000862 106.179977
[null_rope02_connect]
17 328.732849 0.000179 -0.000119 -123.389885 50.917744 21.545753 328.732849
18 328.732849 0.000179 -0.000119 -119.566124 45.058060 22.960541 328.732849
[Rope2_Seg01]
17 0.000095 0.000153 0.000068 -44.334023 0.086991 17.524868 0.000192
18 0.000095 0.000153 0.000072 -44.097878 -3.120064 23.344984 0.000194
[Rope2_Seg02]
17 139.999741 -0.000060 -0.000119 -7.585022 3.685408 16.965437 139.999756
18 139.999741 -0.000060 -0.000119 -3.322258 1.119365 9.917264 139.999756
[Rope2_Seg03]
17 140.000107 0.000030 0.000000 -9.025096 4.119677 41.419479 140.000107
18 140.000107 0.000030 0.000000 -4.934630 1.246824 23.181368 140.000107
[Rope2_Seg04]
17 139.999802 0.000000 -0.000060 0.688278 -1.775994 36.397423 139.999802
18 139.999802 0.000000 -0.000060 1.578825 1.202341 50.075146 139.999802
[Rope2_Seg05]
17 139.999985 -0.000060 0.000119 0.081999 -6.175983 4.297451 139.999985
18 139.999985 -0.000060 0.000119 3.930490 -2.928664 17.809660 139.999985
[Rope2_Seg06]
17 139.999893 -0.000030 -0.000119 -2.613831 -10.343343 -2.772167 139.999893
18 139.999893 -0.000030 -0.000119 -2.374461 -9.462173 -1.395160 139.999893
[Rope2_Seg07]
17 139.999893 0.000060 -0.000060 -0.908848 -6.914001 1.701645 139.999893
18 139.999893 0.000060 -0.000060 -0.512239 -6.634749 2.454066 139.999893
[Rope2_Seg09]
17 121.338966 0.000089 -0.000060 33.793236 -1.359788 -0.847141 121.338966
18 121.338966 0.000089 -0.000060 33.793236 -1.359788 -0.847141 121.338966
[R_mid_hand01]
17 104.680779 11.144459 -10.335981 -28.450178 39.729874 52.441860 105.778534
18 104.680779 11.144459 -10.335981 -24.361811 42.075428 58.684338 105.778534
[R_mid_hand02]
17 104.070427 2.443552 8.231699 63.903545 -55.672962 22.558971 104.424065
18 104.070427 2.443552 8.231699 59.930561 -60.321342 27.236174 104.424065
[R_mid_hand03]
17 106.028137 -11.221827 -5.996406 -173.263687 14.341306 -61.789326 106.788818
18 106.028137 -11.221827 -5.996406 -174.631485 14.897619 -67.203438 106.788818
[spine02]
17 129.756927 0.001550 0.000119 0.360061 -4.044797 -12.915058 129.756927
18 129.756927 0.001550 0.000119 0.360061 -4.044797 -12.915058 129.756927
[spine03]
17 78.614044 0.081753 -4.899015 1.896495 3.831288 16.473045 78.766579
18 78.614044 0.081770 -4.899015 1.896495 3.831288 16.473045 78.766579
[pelvis]
17 169.435242 0.051022 0.000000 -0.060465 -0.180225 14.087930 169.435257
18 169.435242 0.051022 0.000000 -0.060465 -0.180225 14.087930 169.435257
[null_rope03_connect]
17 -1.257226 -2.466202 137.391083 20.030275 -84.040863 51.716904 137.418976
18 -1.257226 -2.466202 137.391083 52.739235 -84.076996 22.679813 137.418976
[null_rope04_connect]
17 -1.259640 -2.480268 -137.844437 20.030275 -84.040863 51.716904 137.872513
18 -1.259640 -2.480268 -137.844437 52.739235 -84.076996 22.679813 137.872513
[Rope3_Seg01]
17 -0.000010 0.000000 -0.000271 -132.578003 -15.442948 -71.813644 0.000271
18 -0.000010 0.000000 -0.000288 -136.398849 -30.200832 -69.853905 0.000288
[Rope3_Seg02]
17 139.999924 -0.000119 0.000060 -0.029761 -6.090586 -14.252632 139.999924
18 139.999924 -0.000119 0.000060 -1.505103 -3.362568 -13.982754 139.999924
[Rope3_Seg03]
17 139.999924 -0.000119 0.000119 -1.884484 -4.405940 -13.485804 139.999924
18 139.999924 -0.000119 0.000119 -1.523082 -2.784606 -9.124055 139.999924
[Rope3_Seg04]
17 139.999924 0.000119 0.000000 -8.722022 -11.295687 -28.218475 139.999924
18 139.999924 0.000119 0.000000 -10.561362 -3.039130 -20.555552 139.999924
[Rope3_Seg05]
17 139.999924 -0.000238 0.000060 -133.908417 -8.597404 -36.119461 139.999924
18 139.999924 -0.000238 0.000060 -84.905289 3.891634 -42.287144 139.999924
[Rope3_Seg06]
17 139.999893 -0.000119 -0.000060 -7.781835 9.140954 6.011124 139.999893
18 139.999893 -0.000119 -0.000060 -17.965536 13.981658 -0.252109 139.999893
[Rope3_Seg07]
17 139.999771 0.000060 -0.000119 -1.558054 4.084704 3.609178 139.999771
18 139.999771 0.000060 -0.000119 -4.178421 5.693798 1.706540 139.999771
[Rope3_Seg08]
17 139.999985 -0.000060 0.000000 -0.313251 2.109417 1.974603 139.999985
18 139.999985 -0.000060 0.000000 -1.435047 2.884634 1.103502 139.999985
[Rope3_Seg09]
17 90.185997 -0.000179 -0.000060 89.793228 -1.359877 -0.847183 90.185997
18 90.185997 -0.000179 -0.000060 89.793228 -1.359877 -0.847183 90.185997
[R_rear_hand01]
17 103.366196 -6.073594 -10.757982 -171.885544 23.373793 -59.632927 104.101845
18 103.366196 -6.073594 -10.757982 -174.043243 23.976639 -65.003036 104.101845
[R_rear_hand02]
17 100.509819 12.039542 -7.992327 -21.647234 32.954258 56.905514 101.543350
18 100.509819 12.039542 -7.992327 -18.533064 34.659107 62.503948 101.543350
[R_rear_hand03]
17 101.539970 5.215704 5.435467 78.870132 -59.128033 13.449208 101.819031
18 101.539970 5.215704 5.435467 76.952400 -63.971813 15.629131 101.819031
[Rope4_Seg01]
17 0.000010 0.000038 -0.000114 49.904686 -5.483781 -123.844803 0.000121
18 0.000010 0.000038 -0.000114 52.251957 -12.405853 -119.864586 0.000121
[Rope4_Seg02]
17 139.999985 0.000060 0.000119 -1.299403 -7.094418 -7.033471 139.999985
18 139.999985 0.000060 0.000119 1.258185 -13.162045 -4.884640 139.999985
[Rope4_Seg03]
17 139.999924 0.000000 -0.000238 -5.187844 -11.809512 -13.446892 139.999924
18 139.999924 0.000000 -0.000238 4.642463 -22.120686 -8.168360 139.999924
[Rope4_Seg04]
17 139.999985 0.000000 0.000119 -69.547050 -25.729677 -37.296059 139.999985
18 139.999985 0.000000 0.000119 52.685555 -28.272213 -9.023393 139.999985
[Rope4_Seg05]
17 139.999802 -0.000060 -0.000119 -66.399986 27.223940 -42.880611 139.999802
18 139.999802 -0.000060 -0.000119 105.550438 -34.769951 27.946056 139.999802
[Rope4_Seg06]
17 139.999924 0.000000 0.000060 -1.955502 10.851521 0.630841 139.999924
18 139.999924 0.000000 0.000060 2.903443 14.694202 9.254068 139.999924
[Rope4_Seg07]
17 139.999802 0.000000 0.000000 -0.474275 4.832038 0.451938 139.999802
18 139.999802 0.000000 0.000000 0.657043 5.981660 3.438879 139.999802
[Rope4_Seg08]
17 139.999924 0.000000 0.000119 -1.676136 2.156581 0.217478 139.999924
18 139.999924 0.000000 0.000119 -1.280372 2.993690 1.685118 139.999924
[Rope4_Seg09]
17 90.185791 0.000060 0.000060 -135.617828 2.228885 0.850567 90.185791
18 90.185791 0.000060 0.000060 -135.617828 2.228885 0.850567 90.185791
[L_rear_hand01]
17 101.696655 -8.392275 -7.654577 -14.676031 -36.272411 110.857773 102.329041
18 101.696655 -8.392275 -7.654577 -13.354946 -36.717743 108.641319 102.329041
[L_rear_hand02]
17 102.726799 -1.568258 5.773216 73.610275 69.437737 160.740723 102.900848
18 102.726799 -1.568258 5.773216 72.111580 71.190041 159.144623 102.900848
[L_rear_hand03]
17 104.552910 9.721220 -10.420293 -176.571320 -24.441332 -108.830566 105.519653
18 104.552910 9.721220 -10.420293 -177.406555 -24.537498 -106.814911 105.519653
